<svg xmlns="http://www.w3.org/2000/svg" viewBox="0 0 1600 900" width="1600" height="900">
<rect width="1600" height="900" fill="#faf6ec"/>
<text x="72.0" y="62.0" font-family="'Jost', 'Futura', 'Helvetica Neue', Arial, sans-serif" font-size="12" font-weight="600" fill="#0067b2" text-anchor="start" letter-spacing="2.6">
<tspan x="72.0" dy="0">SUMMARY FIGURE 1  ·  POLICY PROCESS</tspan>
</text>
<text x="72.0" y="106.0" font-family="Georgia, 'Source Serif 4', 'Times New Roman', serif" font-size="37" font-weight="700" fill="#2b2721" text-anchor="start">
<tspan x="72.0" dy="0">The science climbed while the policy went quiet</tspan>
</text>
<text x="72.0" y="138.0" font-family="Georgia, 'Source Serif 4', 'Times New Roman', serif" font-size="16" font-weight="400" fill="#55503f" text-anchor="start">
<tspan x="72.0" dy="0">Mountains entered the climate regime in 1992, vanished from its two operative agreements, and returned three decades later —</tspan>
</text>
<text x="72.0" y="160.0" font-family="Georgia, 'Source Serif 4', 'Times New Roman', serif" font-size="16" font-weight="400" fill="#55503f" text-anchor="start">
<tspan x="72.0" dy="0">on the back of assessments that had meanwhile given them a chapter, then a cross-chapter paper, of their own.</tspan>
</text>
<text x="72.0" y="196.0" font-family="'Jost', 'Futura', 'Helvetica Neue', Arial, sans-serif" font-size="11" font-weight="600" fill="#33698f" text-anchor="start" letter-spacing="1.9">
<tspan x="72.0" dy="0">SCIENCE  ·  IPCC ASSESSMENTS</tspan>
</text>
<line x1="180.0" y1="312" x2="1418" y2="312" stroke="#cfc6ae" stroke-width="1" stroke-dasharray="1 5"/>
<text x="1418.0" y="304.0" font-family="'Jost', 'Futura', 'Helvetica Neue', Arial, sans-serif" font-size="10.5" font-weight="400" fill="#8a8377" text-anchor="end" font-style="italic">
<tspan x="1418.0" dy="0">mountains inside other chapters</tspan>
</text>
<line x1="180.0" y1="256" x2="1418" y2="256" stroke="#cfc6ae" stroke-width="1" stroke-dasharray="1 5"/>
<text x="1418.0" y="248.0" font-family="'Jost', 'Futura', 'Helvetica Neue', Arial, sans-serif" font-size="10.5" font-weight="400" fill="#8a8377" text-anchor="end" font-style="italic">
<tspan x="1418.0" dy="0">a chapter of their own</tspan>
</text>
<line x1="180.0" y1="210" x2="1418" y2="210" stroke="#cfc6ae" stroke-width="1" stroke-dasharray="1 5"/>
<text x="1418.0" y="202.0" font-family="'Jost', 'Futura', 'Helvetica Neue', Arial, sans-serif" font-size="10.5" font-weight="400" fill="#8a8377" text-anchor="end" font-style="italic">
<tspan x="1418.0" dy="0">a cross-chapter paper</tspan>
</text>
<path d="M180.0 312 L1161.9 312 L1161.9 256 L1262.2 256 L1262.2 210 L1418.0 210" fill="none" stroke="#33698f" stroke-width="2.4"/>
<circle cx="214.0" cy="312" r="4.5" fill="#33698f"/>
<text x="214.0" y="338.0" font-family="'Jost', 'Futura', 'Helvetica Neue', Arial, sans-serif" font-size="12.5" font-weight="500" fill="#2b2721" text-anchor="middle">
<tspan x="214.0" dy="0">FAR</tspan>
</text>
<circle cx="381.2" cy="312" r="4.5" fill="#33698f"/>
<text x="381.2" y="338.0" font-family="'Jost', 'Futura', 'Helvetica Neue', Arial, sans-serif" font-size="12.5" font-weight="500" fill="#2b2721" text-anchor="middle">
<tspan x="381.2" dy="0">SAR</tspan>
</text>
<circle cx="581.9" cy="312" r="4.5" fill="#33698f"/>
<text x="581.9" y="292.0" font-family="'Jost', 'Futura', 'Helvetica Neue', Arial, sans-serif" font-size="12.5" font-weight="500" fill="#2b2721" text-anchor="middle">
<tspan x="581.9" dy="0">TAR</tspan>
</text>
<circle cx="782.6" cy="312" r="4.5" fill="#33698f"/>
<text x="782.6" y="338.0" font-family="'Jost', 'Futura', 'Helvetica Neue', Arial, sans-serif" font-size="12.5" font-weight="500" fill="#2b2721" text-anchor="middle">
<tspan x="782.6" dy="0">AR4</tspan>
</text>
<circle cx="1016.7" cy="312" r="4.5" fill="#33698f"/>
<text x="1016.7" y="292.0" font-family="'Jost', 'Futura', 'Helvetica Neue', Arial, sans-serif" font-size="12.5" font-weight="500" fill="#2b2721" text-anchor="middle">
<tspan x="1016.7" dy="0">AR5</tspan>
</text>
<circle cx="1150.4" cy="312" r="4.5" fill="#33698f"/>
<text x="1150.4" y="338.0" font-family="'Jost', 'Futura', 'Helvetica Neue', Arial, sans-serif" font-size="12.5" font-weight="500" fill="#2b2721" text-anchor="middle">
<tspan x="1150.4" dy="0">SR1.5</tspan>
</text>
<circle cx="1183.9" cy="256" r="6.5" fill="#33698f"/>
<circle cx="1183.9" cy="256" r="11" fill="none" stroke="#33698f" stroke-width="1.2" opacity="0.55"/>
<text x="1183.9" y="236.0" font-family="'Jost', 'Futura', 'Helvetica Neue', Arial, sans-serif" font-size="12.5" font-weight="600" fill="#2b2721" text-anchor="middle">
<tspan x="1183.9" dy="0">SROCC</tspan>
</text>
<circle cx="1284.2" cy="210" r="6.5" fill="#33698f"/>
<circle cx="1284.2" cy="210" r="11" fill="none" stroke="#33698f" stroke-width="1.2" opacity="0.55"/>
<text x="1284.2" y="190.0" font-family="'Jost', 'Futura', 'Helvetica Neue', Arial, sans-serif" font-size="12.5" font-weight="600" fill="#2b2721" text-anchor="middle">
<tspan x="1284.2" dy="0">AR6 WGII</tspan>
</text>
<text x="1183.9" y="218.0" font-family="'Jost', 'Futura', 'Helvetica Neue', Arial, sans-serif" font-size="11" font-weight="400" fill="#33698f" text-anchor="middle" font-style="italic">
<tspan x="1183.9" dy="0">Ch. 2  High Mountain Areas</tspan>
</text>
<text x="1284.2" y="172.0" font-family="'Jost', 'Futura', 'Helvetica Neue', Arial, sans-serif" font-size="11" font-weight="400" fill="#33698f" text-anchor="middle" font-style="italic">
<tspan x="1284.2" dy="0">Cross-Chapter Paper 5  Mountains</tspan>
</text>
<path d="M214.0 326.0 C214.0 415.0 280.9 415.0 280.9 518.0" fill="none" stroke="#8a8377" stroke-width="1.2" opacity="0.65" stroke-dasharray="4 3"/>
<path d="M277.4 513.0 L280.9 519.0 L284.4 513.0" fill="#8a8377" opacity="0.75"/>
<path d="M1016.7 326.0 C1016.7 431.0 1050.1 431.0 1050.1 550.0" fill="none" stroke="#8a8377" stroke-width="1.2" opacity="0.65" stroke-dasharray="4 3"/>
<path d="M1046.6 545.0 L1050.1 551.0 L1053.6 545.0" fill="#8a8377" opacity="0.75"/>
<path d="M1183.9 270.0 C1183.9 395.0 1284.2 395.0 1284.2 534.0" fill="none" stroke="#8a8377" stroke-width="1.2" opacity="0.65" stroke-dasharray="4 3"/>
<path d="M1280.7 529.0 L1284.2 535.0 L1287.7 529.0" fill="#8a8377" opacity="0.75"/>
<path d="M1284.2 224.0 C1284.2 340.0 1317.7 340.0 1317.7 470.0" fill="none" stroke="#8a8377" stroke-width="1.2" opacity="0.65" stroke-dasharray="4 3"/>
<path d="M1314.2 465.0 L1317.7 471.0 L1321.2 465.0" fill="#8a8377" opacity="0.75"/>
<text x="749.1" y="432.0" font-family="'Jost', 'Futura', 'Helvetica Neue', Arial, sans-serif" font-size="12.5" font-weight="400" fill="#8a8377" text-anchor="middle" font-style="italic">
<tspan x="749.1" dy="0">assessments feed the instruments — but for 18 years the instruments carry no mountains at all</tspan>
</text>
<text x="72.0" y="470.0" font-family="'Jost', 'Futura', 'Helvetica Neue', Arial, sans-serif" font-size="11" font-weight="600" fill="#0067b2" text-anchor="start" letter-spacing="1.9">
<tspan x="72.0" dy="0">POLICY  ·  UNFCCC INSTRUMENTS</tspan>
</text>
<text x="72.0" y="486.0" font-family="'Jost', 'Futura', 'Helvetica Neue', Arial, sans-serif" font-size="11" font-weight="600" fill="#0067b2" text-anchor="start" letter-spacing="1.9">
<tspan x="72.0" dy="0">AND DECISIONS</tspan>
</text>
<text x="72.0" y="512.0" font-family="'Jost', 'Futura', 'Helvetica Neue', Arial, sans-serif" font-size="10.5" font-weight="400" fill="#8a8377" text-anchor="start" font-style="italic">
<tspan x="72.0" dy="0">explicit mountain</tspan>
<tspan x="72.0" dy="12.0">references in the text</tspan>
</text>
<line x1="180.0" y1="566" x2="1418" y2="566" stroke="#2b2721" stroke-width="1.4"/>
<rect x="265.9" y="534.0" width="30" height="32" fill="#0067b2" rx="2"/>
<text x="280.9" y="524.0" font-family="'Jost', 'Futura', 'Helvetica Neue', Arial, sans-serif" font-size="15" font-weight="700" fill="#0067b2" text-anchor="middle">
<tspan x="280.9" dy="0">2</tspan>
</text>
<text x="280.9" y="588.0" font-family="'Jost', 'Futura', 'Helvetica Neue', Arial, sans-serif" font-size="12.5" font-weight="600" fill="#2b2721" text-anchor="middle">
<tspan x="280.9" dy="0">UNFCCC</tspan>
</text>
<text x="280.9" y="606.0" font-family="'Jost', 'Futura', 'Helvetica Neue', Arial, sans-serif" font-size="10.5" font-weight="400" fill="#0067b2" text-anchor="middle" font-style="italic">
<tspan x="280.9" dy="0">preamble and Art. 4.8(g)</tspan>
</text>
<circle cx="448.1" cy="553.0" r="10" fill="#faf6ec" stroke="#a8453e" stroke-width="2"/>
<line x1="443.1" y1="548.0" x2="453.1" y2="558.0" stroke="#a8453e" stroke-width="1.9"/>
<line x1="453.1" y1="548.0" x2="443.1" y2="558.0" stroke="#a8453e" stroke-width="1.9"/>
<text x="448.1" y="532.0" font-family="'Jost', 'Futura', 'Helvetica Neue', Arial, sans-serif" font-size="15" font-weight="700" fill="#a8453e" text-anchor="middle">
<tspan x="448.1" dy="0">0</tspan>
</text>
<text x="448.1" y="588.0" font-family="'Jost', 'Futura', 'Helvetica Neue', Arial, sans-serif" font-size="12.5" font-weight="600" fill="#2b2721" text-anchor="middle">
<tspan x="448.1" dy="0">Kyoto Protocol</tspan>
</text>
<circle cx="1050.1" cy="553.0" r="10" fill="#faf6ec" stroke="#a8453e" stroke-width="2"/>
<line x1="1045.1" y1="548.0" x2="1055.1" y2="558.0" stroke="#a8453e" stroke-width="1.9"/>
<line x1="1055.1" y1="548.0" x2="1045.1" y2="558.0" stroke="#a8453e" stroke-width="1.9"/>
<text x="1050.1" y="532.0" font-family="'Jost', 'Futura', 'Helvetica Neue', Arial, sans-serif" font-size="15" font-weight="700" fill="#a8453e" text-anchor="middle">
<tspan x="1050.1" dy="0">0</tspan>
</text>
<text x="1050.1" y="588.0" font-family="'Jost', 'Futura', 'Helvetica Neue', Arial, sans-serif" font-size="12.5" font-weight="600" fill="#2b2721" text-anchor="middle">
<tspan x="1050.1" dy="0">Paris Agreement</tspan>
</text>
<rect x="1269.2" y="550.0" width="30" height="16" fill="#0067b2" rx="2"/>
<text x="1284.2" y="540.0" font-family="'Jost', 'Futura', 'Helvetica Neue', Arial, sans-serif" font-size="15" font-weight="700" fill="#0067b2" text-anchor="middle">
<tspan x="1284.2" dy="0">1</tspan>
</text>
<text x="1262.2" y="588.0" font-family="'Jost', 'Futura', 'Helvetica Neue', Arial, sans-serif" font-size="12.5" font-weight="600" fill="#2b2721" text-anchor="end">
<tspan x="1262.2" dy="0">COP27</tspan>
</text>
<text x="1262.2" y="606.0" font-family="'Jost', 'Futura', 'Helvetica Neue', Arial, sans-serif" font-size="10.5" font-weight="400" fill="#0067b2" text-anchor="end" font-style="italic">
<tspan x="1262.2" dy="0">mountains named among</tspan>
<tspan x="1262.2" dy="12.0">systematic observation gaps</tspan>
</text>
<rect x="1302.7" y="486.0" width="30" height="80" fill="#0067b2" rx="2"/>
<text x="1317.7" y="476.0" font-family="'Jost', 'Futura', 'Helvetica Neue', Arial, sans-serif" font-size="15" font-weight="700" fill="#0067b2" text-anchor="middle">
<tspan x="1317.7" dy="0">5</tspan>
</text>
<text x="1339.7" y="588.0" font-family="'Jost', 'Futura', 'Helvetica Neue', Arial, sans-serif" font-size="12.5" font-weight="600" fill="#2b2721" text-anchor="start">
<tspan x="1339.7" dy="0">Global Stocktake</tspan>
</text>
<text x="1339.7" y="606.0" font-family="'Jost', 'Futura', 'Helvetica Neue', Arial, sans-serif" font-size="10.5" font-weight="400" fill="#0067b2" text-anchor="start" font-style="italic">
<tspan x="1339.7" dy="0">and an SBSTA expert dialogue</tspan>
<tspan x="1339.7" dy="12.0">on mountains, June 2024</tspan>
</text>
<line x1="464.1" y1="553.0" x2="1034.1" y2="553.0" stroke="#a8453e" stroke-width="1" stroke-dasharray="3 4" opacity="0.7"/>
<line x1="214.0" y1="628" x2="214.0" y2="634" stroke="#8a8377" stroke-width="1"/>
<text x="214.0" y="650.0" font-family="'Jost', 'Futura', 'Helvetica Neue', Arial, sans-serif" font-size="12" font-weight="400" fill="#8a8377" text-anchor="middle">
<tspan x="214.0" dy="0">1990</tspan>
</text>
<line x1="381.2" y1="628" x2="381.2" y2="634" stroke="#8a8377" stroke-width="1"/>
<text x="381.2" y="650.0" font-family="'Jost', 'Futura', 'Helvetica Neue', Arial, sans-serif" font-size="12" font-weight="400" fill="#8a8377" text-anchor="middle">
<tspan x="381.2" dy="0">1995</tspan>
</text>
<line x1="548.4" y1="628" x2="548.4" y2="634" stroke="#8a8377" stroke-width="1"/>
<text x="548.4" y="650.0" font-family="'Jost', 'Futura', 'Helvetica Neue', Arial, sans-serif" font-size="12" font-weight="400" fill="#8a8377" text-anchor="middle">
<tspan x="548.4" dy="0">2000</tspan>
</text>
<line x1="715.7" y1="628" x2="715.7" y2="634" stroke="#8a8377" stroke-width="1"/>
<text x="715.7" y="650.0" font-family="'Jost', 'Futura', 'Helvetica Neue', Arial, sans-serif" font-size="12" font-weight="400" fill="#8a8377" text-anchor="middle">
<tspan x="715.7" dy="0">2005</tspan>
</text>
<line x1="882.9" y1="628" x2="882.9" y2="634" stroke="#8a8377" stroke-width="1"/>
<text x="882.9" y="650.0" font-family="'Jost', 'Futura', 'Helvetica Neue', Arial, sans-serif" font-size="12" font-weight="400" fill="#8a8377" text-anchor="middle">
<tspan x="882.9" dy="0">2010</tspan>
</text>
<line x1="1050.1" y1="628" x2="1050.1" y2="634" stroke="#8a8377" stroke-width="1"/>
<text x="1050.1" y="650.0" font-family="'Jost', 'Futura', 'Helvetica Neue', Arial, sans-serif" font-size="12" font-weight="400" fill="#8a8377" text-anchor="middle">
<tspan x="1050.1" dy="0">2015</tspan>
</text>
<line x1="1217.3" y1="628" x2="1217.3" y2="634" stroke="#8a8377" stroke-width="1"/>
<text x="1217.3" y="650.0" font-family="'Jost', 'Futura', 'Helvetica Neue', Arial, sans-serif" font-size="12" font-weight="400" fill="#8a8377" text-anchor="middle">
<tspan x="1217.3" dy="0">2020</tspan>
</text>
<line x1="1384.6" y1="628" x2="1384.6" y2="634" stroke="#8a8377" stroke-width="1"/>
<text x="1384.6" y="650.0" font-family="'Jost', 'Futura', 'Helvetica Neue', Arial, sans-serif" font-size="12" font-weight="400" fill="#8a8377" text-anchor="middle">
<tspan x="1384.6" dy="0">2025</tspan>
</text>
<line x1="72" y1="700" x2="1528" y2="700" stroke="#cfc6ae" stroke-width="1"/>
<text x="72.0" y="728.0" font-family="'Jost', 'Futura', 'Helvetica Neue', Arial, sans-serif" font-size="11" font-weight="600" fill="#8a8377" text-anchor="start" letter-spacing="1.9">
<tspan x="72.0" dy="0">THE EVIDENCE BASE  ·  ALL 25 MOUNTAIN-SPECIFIC AGREEMENTS, BY FAMILY</tspan>
</text>
<rect x="72.0" y="746" width="29" height="30" rx="2" fill="#6d9fb5"/>
<rect x="105.0" y="746" width="29" height="30" rx="2" fill="#6d9fb5"/>
<rect x="138.0" y="746" width="29" height="30" rx="2" fill="#6d9fb5"/>
<rect x="171.0" y="746" width="29" height="30" rx="2" fill="#6d9fb5"/>
<rect x="204.0" y="746" width="29" height="30" rx="2" fill="#6d9fb5"/>
<rect x="237.0" y="746" width="29" height="30" rx="2" fill="#6d9fb5"/>
<rect x="270.0" y="746" width="29" height="30" rx="2" fill="#6d9fb5"/>
<rect x="303.0" y="746" width="29" height="30" rx="2" fill="#6d9fb5"/>
<rect x="336.0" y="746" width="29" height="30" rx="2" fill="#6d9fb5"/>
<rect x="369.0" y="746" width="29" height="30" rx="2" fill="#6d9fb5"/>
<rect x="402.0" y="746" width="29" height="30" rx="2" fill="#6d9fb5"/>
<line x1="72.0" y1="783" x2="431.0" y2="783" stroke="#8a8377" stroke-width="1"/>
<text x="72.0" y="800.0" font-family="'Jost', 'Futura', 'Helvetica Neue', Arial, sans-serif" font-size="11" font-weight="400" fill="#55503f" text-anchor="start">
<tspan x="72.0" dy="0">Alpine Convention</tspan>
<tspan x="72.0" dy="12.5">+ 10 protocols</tspan>
</text>
<text x="431.0" y="800.0" font-family="'Jost', 'Futura', 'Helvetica Neue', Arial, sans-serif" font-size="11.5" font-weight="600" fill="#8a8377" text-anchor="end">
<tspan x="431.0" dy="0">11</tspan>
</text>
<rect x="457.0" y="746" width="29" height="30" rx="2" fill="#6d9fb5"/>
<rect x="490.0" y="746" width="29" height="30" rx="2" fill="#6d9fb5"/>
<rect x="523.0" y="746" width="29" height="30" rx="2" fill="#6d9fb5"/>
<rect x="556.0" y="746" width="29" height="30" rx="2" fill="#6d9fb5"/>
<rect x="589.0" y="746" width="29" height="30" rx="2" fill="#6d9fb5"/>
<rect x="622.0" y="746" width="29" height="30" rx="2" fill="#6d9fb5"/>
<rect x="655.0" y="746" width="29" height="30" rx="2" fill="#6d9fb5"/>
<line x1="457.0" y1="783" x2="684.0" y2="783" stroke="#8a8377" stroke-width="1"/>
<text x="457.0" y="800.0" font-family="'Jost', 'Futura', 'Helvetica Neue', Arial, sans-serif" font-size="11" font-weight="400" fill="#55503f" text-anchor="start">
<tspan x="457.0" dy="0">Carpathian Convention</tspan>
<tspan x="457.0" dy="12.5">+ 6 protocols</tspan>
</text>
<text x="684.0" y="800.0" font-family="'Jost', 'Futura', 'Helvetica Neue', Arial, sans-serif" font-size="11.5" font-weight="600" fill="#8a8377" text-anchor="end">
<tspan x="684.0" dy="0">7</tspan>
</text>
<rect x="710.0" y="746" width="29" height="30" rx="2" fill="#0067b2"/>
<rect x="743.0" y="746" width="29" height="30" rx="2" fill="#0067b2"/>
<rect x="776.0" y="746" width="29" height="30" rx="2" fill="#0067b2"/>
<line x1="710.0" y1="783" x2="805.0" y2="783" stroke="#8a8377" stroke-width="1"/>
<text x="710.0" y="800.0" font-family="'Jost', 'Futura', 'Helvetica Neue', Arial, sans-serif" font-size="11" font-weight="400" fill="#55503f" text-anchor="start">
<tspan x="710.0" dy="0">UNFCCC · CBD · UNCCD</tspan>
<tspan x="710.0" dy="12.5">(global, 1992–94)</tspan>
</text>
<text x="805.0" y="800.0" font-family="'Jost', 'Futura', 'Helvetica Neue', Arial, sans-serif" font-size="11.5" font-weight="600" fill="#8a8377" text-anchor="end">
<tspan x="805.0" dy="0">3</tspan>
</text>
<rect x="831.0" y="746" width="29" height="30" rx="2" fill="#6d9fb5"/>
<rect x="864.0" y="746" width="29" height="30" rx="2" fill="#6d9fb5"/>
<rect x="897.0" y="746" width="29" height="30" rx="2" fill="#6d9fb5"/>
<rect x="930.0" y="746" width="29" height="30" rx="2" fill="#6d9fb5"/>
<line x1="831.0" y1="783" x2="959.0" y2="783" stroke="#8a8377" stroke-width="1"/>
<text x="831.0" y="800.0" font-family="'Jost', 'Futura', 'Helvetica Neue', Arial, sans-serif" font-size="11" font-weight="400" fill="#55503f" text-anchor="start">
<tspan x="831.0" dy="0">Four one-off agreements</tspan>
<tspan x="831.0" dy="12.5">W. Tien Shan · Central Asia · East African Community · Prespa Park</tspan>
</text>
<text x="959.0" y="800.0" font-family="'Jost', 'Futura', 'Helvetica Neue', Arial, sans-serif" font-size="11.5" font-weight="600" fill="#8a8377" text-anchor="end">
<tspan x="959.0" dy="0">4</tspan>
</text>
<text x="72.0" y="844.0" font-family="Georgia, 'Source Serif 4', 'Times New Roman', serif" font-size="13" font-weight="400" fill="#2b2721" text-anchor="start">
<tspan x="72.0" dy="0">25 of 1,465 multilateral environmental agreements name mountains — 1.7 per cent. Eighteen of the twenty-five come from two mountain ranges.</tspan>
</text>
<text x="1122.0" y="760.0" font-family="Georgia, 'Source Serif 4', 'Times New Roman', serif" font-size="40" font-weight="700" fill="#b45a38" text-anchor="start">
<tspan x="1122.0" dy="0">4.8%</tspan>
</text>
<text x="1122.0" y="784.0" font-family="Georgia, 'Source Serif 4', 'Times New Roman', serif" font-size="12.5" font-weight="400" fill="#55503f" text-anchor="start">
<tspan x="1122.0" dy="0">of the world's mountain area sits in a</tspan>
</text>
<text x="1122.0" y="802.0" font-family="Georgia, 'Source Serif 4', 'Times New Roman', serif" font-size="12.5" font-weight="400" fill="#55503f" text-anchor="start">
<tspan x="1122.0" dy="0">country with a regional mountain treaty</tspan>
</text>
<rect x="1122" y="816" width="348" height="14" fill="#cfc6ae"/>
<rect x="1122" y="816" width="16.7" height="14" fill="#b45a38"/>
<text x="1122.0" y="848.0" font-family="'Jost', 'Futura', 'Helvetica Neue', Arial, sans-serif" font-size="11.5" font-weight="400" fill="#8a8377" text-anchor="start">
<tspan x="1122.0" dy="0">26 of 180 mountain countries  ·  2.41 of 50.29 M km²</tspan>
</text>
<text x="1122.0" y="866.0" font-family="'Jost', 'Futura', 'Helvetica Neue', Arial, sans-serif" font-size="11" font-weight="400" fill="#b45a38" text-anchor="start" font-style="italic">
<tspan x="1122.0" dy="0">nothing for the Andes, Himalaya, Rockies or Ethiopian Highlands</tspan>
</text>
<text x="72.0" y="880.0" font-family="'Jost', 'Futura', 'Helvetica Neue', Arial, sans-serif" font-size="10" font-weight="400" fill="#8a8377" text-anchor="start">
<tspan x="72.0" dy="0">Mountain references counted in the primary texts: UNFCCC 1992; Kyoto Protocol 1997; Paris Agreement FCCC/CP/2015/10/Add.1; COP27 decision FCCC/SBSTA/2022/L.20/Add.1 para 3; first global stocktake decision -/CMA.5 (2023), para 181 mandating an SBSTA expert dialogue on mountains.</tspan>
</text>
<text x="72.0" y="892.0" font-family="'Jost', 'Futura', 'Helvetica Neue', Arial, sans-serif" font-size="10" font-weight="400" fill="#8a8377" text-anchor="start">
<tspan x="72.0" dy="0">Treaty counts and country coverage recomputed from GEO Mountains (2026), Dataset on the spatialisation of MEAs in mountain regions v1.0, Zenodo DOI 10.5281/zenodo.18386085 (IEA Database, Université Laval). Mountain area after Sayre et al. (2018), K1–K3 union.</tspan>
</text>
</svg>